<?xml version="1.0" standalone="no"?>
<!DOCTYPE svg PUBLIC "-//W3C//DTD SVG 20010904//EN"
 "http://www.w3.org/TR/2001/REC-SVG-20010904/DTD/svg10.dtd">
<svg version="1.0" xmlns="http://www.w3.org/2000/svg"
 width="145" height="63" viewBox="0 0 145.000000 158.000000"
 preserveAspectRatio="xMidYMid meet">

<g transform="translate(0.000000,158.000000) scale(0.100000,-0.100000)"
fill="#000000" stroke="none">
<path d="M1283 1495 c-12 -8 -31 -31 -43 -50 -15 -25 -29 -35 -46 -35 -18 0
-23 4 -18 13 6 9 4 9 -8 -1 -13 -10 -17 -10 -21 0 -4 10 -6 10 -6 1 -1 -8 -16
-13 -40 -13 -59 0 -57 -15 4 -30 77 -18 79 -21 59 -63 -14 -30 -23 -37 -46
-37 -36 0 -36 -14 1 -30 16 -6 32 -18 35 -27 3 -8 10 -12 16 -8 6 4 5 15 -2
31 -10 21 -8 28 17 54 16 17 31 30 34 30 3 0 21 -23 40 -50 37 -54 65 -56 37
-3 -12 23 -12 33 -3 42 9 10 8 11 -6 5 -13 -5 -16 -2 -11 10 3 9 2 16 -4 16
-22 0 -21 33 2 63 25 34 50 97 38 97 -4 0 -17 -7 -29 -15z"/>
<path d="M738 1088 l-3 -203 -76 -45 c-41 -25 -113 -61 -159 -79 -221 -87
-342 -55 -311 84 6 28 23 69 37 91 l25 39 -26 -30 c-38 -44 -82 -124 -94 -172
-9 -34 -9 -49 3 -77 51 -122 358 -30 665 199 119 88 210 173 266 245 54 71 79
119 34 65 -19 -22 -46 -53 -61 -70 l-27 -30 -1 93 0 92 -135 0 -135 0 -2 -202z"/>
<path d="M957 974 c-37 -40 -102 -99 -142 -131 l-75 -58 0 -50 c0 -92 -48
-148 -114 -131 -15 4 -35 20 -44 35 l-16 29 -78 -40 c-43 -21 -108 -50 -145
-63 -60 -21 -64 -24 -34 -24 27 -1 41 -9 68 -40 18 -22 59 -52 91 -68 54 -26
65 -28 187 -28 122 0 133 2 187 28 32 16 73 46 92 69 59 68 68 110 73 323 3
110 9 195 15 203 6 7 9 14 7 16 -2 1 -35 -30 -72 -70z"/>
<path d="M190 195 c0 -9 9 -15 25 -15 24 0 25 -2 25 -70 0 -68 1 -70 25 -70
24 0 25 2 25 70 0 68 1 70 25 70 16 0 25 6 25 15 0 12 -15 15 -75 15 -60 0
-75 -3 -75 -15z"/>
<path d="M380 125 c0 -78 2 -85 20 -85 16 0 20 7 20 30 0 18 5 30 13 30 7 0
23 -13 35 -30 15 -20 31 -30 48 -30 l26 0 -27 36 c-25 33 -26 37 -11 53 19 21
21 52 4 69 -7 7 -38 12 -70 12 l-58 0 0 -85z m95 45 c9 -15 -14 -40 -36 -40
-14 0 -19 7 -19 25 0 20 5 25 24 25 14 0 28 -5 31 -10z"/>
<path d="M584 125 l-32 -85 23 0 c13 0 25 7 29 15 7 20 72 20 80 0 5 -13 46
-23 46 -11 0 2 -14 41 -31 85 -28 73 -33 81 -57 81 -25 0 -30 -8 -58 -85z m75
-12 c1 -7 -8 -13 -19 -13 -23 0 -23 0 -9 37 10 26 12 27 19 8 5 -11 9 -26 9
-32z"/>
<path d="M755 188 c5 -13 18 -50 30 -83 20 -53 26 -60 50 -60 24 0 30 7 50 60
40 107 40 107 14 103 -17 -2 -26 -15 -38 -50 -9 -26 -19 -49 -22 -53 -3 -3
-15 18 -26 47 -15 40 -26 54 -42 56 -20 3 -22 0 -16 -20z"/>
<path d="M960 125 l0 -85 60 0 c47 0 60 3 60 15 0 11 -11 15 -40 15 -36 0 -40
3 -40 25 0 23 4 25 41 25 52 0 48 24 -4 28 -53 5 -50 32 3 32 29 0 40 4 40 15
0 12 -13 15 -60 15 l-60 0 0 -85z"/>
<path d="M1130 125 l0 -85 60 0 c47 0 60 3 60 15 0 11 -11 15 -40 15 l-40 0 0
70 c0 63 -2 70 -20 70 -18 0 -20 -7 -20 -85z"/>
</g>
</svg>
